Coordinates
nRows=129
nColumns=2
inDegrees=yes
endheader
time	ankle_angle_r	
2.9375	 -5.142265	
3	 -5.183784	
3.0625	 -5.202836	
3.125	 -5.190877	
3.1875	 -5.187519	
3.25	 -5.186143	
3.3125	 -5.159536	
3.375	 -5.157684	
3.4375	 -5.153003	
3.5	 -5.130295	
3.5625	 -5.166058	
3.625	 -5.196622	
3.6875	 -5.165070	
3.75	 -5.134311	
3.8125	 -5.126318	
3.875	 -5.155993	
3.9375	 -5.212499	
4	 -5.252970	
4.0625	 -5.276688	
4.125	 -5.284782	
4.1875	 -5.291616	
4.25	 -5.288207	
4.3125	 -5.254290	
4.375	 -5.241735	
4.4375	 -5.254749	
4.5	 -5.261779	
4.5625	 -5.277653	
4.625	 -5.289482	
4.6875	 -5.288991	
4.75	 -5.277445	
4.8125	 -5.254522	
4.875	 -5.245295	
4.9375	 -5.236747	
5	 -5.219876	
5.0625	 -5.207319	
5.125	 -5.198588	
5.1875	 -5.197265	
5.25	 -5.173028	
5.3125	 -5.152664	
5.375	 -5.167978	
5.4375	 -5.161881	
5.5	 -5.173228	
5.5625	 -5.224110	
5.625	 -5.241953	
5.6875	 -5.229376	
5.75	 -5.171803	
5.8125	 -5.089370	
5.875	 -5.063168	
5.9375	 -5.053559	
6	 -5.042025	
6.0625	 -5.065082	
6.125	 -5.115795	
6.1875	 -5.180969	
6.25	 -5.192570	
6.3125	 -5.182469	
6.375	 -5.224065	
6.4375	 -5.222690	
6.5	 -5.190726	
6.5625	 -5.213652	
6.625	 -5.237225	
6.6875	 -5.246739	
6.75	 -5.241175	
6.8125	 -5.198042	
6.875	 -5.186608	
6.9375	 -5.208809	
7	 -5.190291	
7.0625	 -5.166870	
7.125	 -5.203002	
7.1875	 -5.248844	
7.25	 -5.180328	
7.3125	 -5.040620	
7.375	 -5.021927	
7.4375	 -5.101342	
7.5	 -5.129043	
7.5625	 -5.091575	
7.625	 -5.071203	
7.6875	 -5.120538	
7.75	 -5.159600	
7.8125	 -5.171945	
7.875	 -5.228232	
7.9375	 -5.263393	
8	 -5.265327	
8.0625	 -5.280798	
8.125	 -5.271725	
8.1875	 -5.267009	
8.25	 -5.281705	
8.3125	 -5.269971	
8.375	 -5.253119	
8.4375	 -5.248875	
8.5	 -5.255577	
8.5625	 -5.258236	
8.625	 -5.246532	
8.6875	 -5.250451	
8.75	 -5.212649	
8.8125	 -5.128286	
8.875	 -5.112238	
8.9375	 -5.123979	
9	 -5.105456	
9.0625	 -5.118997	
9.125	 -5.158979	
9.1875	 -5.161511	
9.25	 -5.125778	
9.3125	 -5.105389	
9.375	 -5.106964	
9.4375	 -5.114571	
9.5	 -5.141211	
9.5625	 -5.162687	
9.625	 -5.181094	
9.6875	 -5.211507	
9.75	 -5.153663	
9.8125	 -5.056536	
9.875	 -5.095330	
9.9375	 -5.157681	
10	 -5.144543	
10.0625	 -5.154228	
10.125	 -5.165323	
10.1875	 -5.151043	
10.25	 -5.160622	
10.3125	 -5.197767	
10.375	 -5.237471	
10.4375	 -5.253816	
10.5	 -5.262426	
10.5625	 -5.280065	
10.625	 -5.289549	
10.6875	 -5.284597	
10.75	 -5.265933	
10.8125	 -5.255266	
10.875	 -5.258615	
10.9375	 -5.245176	
